# xmcd
#
# Track frame offsets:
#	150
#	7406
#	26974
#	42398
#	55879
#	79242
#	92223
#	107394
#	126993
#	150144
#	160664
#	175986
#	191620
#
# Disc length: 2776 seconds
#
# Revision: 0
# Processed by: cddbd v1.5.1PL0 Copyright (c) Steve Scherf et al.
# Submitted via: dBpowerAMP V4.0
#
DISCID=a50ad60d
DTITLE=Everlast - Eat at Whitey's
DYEAR=2000
DGENRE=Blues
TTITLE0=Whitey
TTITLE1=Black Jesus
TTITLE2=I Can't Move
TTITLE3=Black Coffee - f Merry Clayton
TTITLE4=Babylon Feeling - f Carlos Santana
TTITLE5=Deadly Assassins - f B-Real
TTITLE6=Children's Story - f Rahzel
TTITLE7=Love For Real - f N'Dea Davenport
TTITLE8=One and the Same - f N'Dea Davenport
TTITLE9=We're All Gonna Die - f Cee-Lo
TTITLE10=Mercy On My Soul
TTITLE11=One, Two - f Kurupt
TTITLE12=Graves to Dig
EXTD=
EXTT0=
EXTT1=
EXTT2=
EXTT3=
EXTT4=
EXTT5=
EXTT6=
EXTT7=
EXTT8=
EXTT9=
EXTT10=
EXTT11=
EXTT12=
PLAYORDER=
